<mxfile host="app.diagrams.net" modified="2021-07-12T14:39:24.737Z" agent="5.0 (Windows NT 10.0; Win64; x64) AppleWebKit/537.36 (KHTML, like Gecko) Chrome/91.0.4472.124 Safari/537.36" etag="nlNLGRJRsQtLu5jwW16I" version="14.8.5" type="github">
  <diagram id="8BNwjWpXG02CwDG01nQr" name="Page-1">
    <mxGraphModel dx="2031" dy="1089" grid="1" gridSize="10" guides="1" tooltips="1" connect="1" arrows="1" fold="1" page="1" pageScale="1" pageWidth="850" pageHeight="1100" math="0" shadow="0">
      <root>
        <mxCell id="0" />
        <mxCell id="1" parent="0" />
        <mxCell id="ZAa_9KlzSh3YiVGpdPK9-7" value="08/01/2021" style="strokeWidth=1;shadow=0;dashed=0;align=center;html=1;shape=mxgraph.mockup.text.textBox;fontColor=#666666;align=left;fontSize=17;spacingLeft=4;spacingTop=-3;strokeColor=#666666;mainText=" vertex="1" parent="1">
          <mxGeometry x="110" y="60" width="150" height="30" as="geometry" />
        </mxCell>
        <mxCell id="ZAa_9KlzSh3YiVGpdPK9-8" value="Start Date" style="text;html=1;strokeColor=none;fillColor=none;align=center;verticalAlign=middle;whiteSpace=wrap;rounded=0;" vertex="1" parent="1">
          <mxGeometry x="20" y="60" width="80" height="20" as="geometry" />
        </mxCell>
        <mxCell id="ZAa_9KlzSh3YiVGpdPK9-9" value="09/01/2021" style="strokeWidth=1;shadow=0;dashed=0;align=center;html=1;shape=mxgraph.mockup.text.textBox;fontColor=#666666;align=left;fontSize=17;spacingLeft=4;spacingTop=-3;strokeColor=#666666;mainText=" vertex="1" parent="1">
          <mxGeometry x="470" y="55" width="150" height="30" as="geometry" />
        </mxCell>
        <mxCell id="ZAa_9KlzSh3YiVGpdPK9-10" value="End Date" style="text;html=1;strokeColor=none;fillColor=none;align=center;verticalAlign=middle;whiteSpace=wrap;rounded=0;" vertex="1" parent="1">
          <mxGeometry x="370" y="60" width="80" height="20" as="geometry" />
        </mxCell>
        <mxCell id="ZAa_9KlzSh3YiVGpdPK9-11" value="Parameters" style="text;html=1;strokeColor=none;fillColor=none;align=center;verticalAlign=middle;whiteSpace=wrap;rounded=0;" vertex="1" parent="1">
          <mxGeometry x="20" y="20" width="40" height="20" as="geometry" />
        </mxCell>
        <mxCell id="ZAa_9KlzSh3YiVGpdPK9-20" value="" style="shape=table;html=1;whiteSpace=wrap;startSize=0;container=1;collapsible=0;childLayout=tableLayout;" vertex="1" parent="1">
          <mxGeometry x="20" y="260" width="1810" height="160" as="geometry" />
        </mxCell>
        <mxCell id="ZAa_9KlzSh3YiVGpdPK9-21" value="" style="shape=partialRectangle;html=1;whiteSpace=wrap;collapsible=0;dropTarget=0;pointerEvents=0;fillColor=none;top=0;left=0;bottom=0;right=0;points=[[0,0.5],[1,0.5]];portConstraint=eastwest;" vertex="1" parent="ZAa_9KlzSh3YiVGpdPK9-20">
          <mxGeometry width="1810" height="40" as="geometry" />
        </mxCell>
        <mxCell id="ZAa_9KlzSh3YiVGpdPK9-22" value="First Name" style="shape=partialRectangle;html=1;whiteSpace=wrap;connectable=0;top=0;left=0;bottom=0;right=0;overflow=hidden;align=left;fillColor=#6C757D;fontColor=#FFFFFF;fontStyle=1;fontSize=18;" vertex="1" parent="ZAa_9KlzSh3YiVGpdPK9-21">
          <mxGeometry width="340" height="40" as="geometry" />
        </mxCell>
        <mxCell id="ZAa_9KlzSh3YiVGpdPK9-23" value="Last Name" style="shape=partialRectangle;html=1;whiteSpace=wrap;connectable=0;top=0;left=0;bottom=0;right=0;overflow=hidden;align=left;fontColor=#FFFFFF;fillColor=#6C757D;fontStyle=1;fontSize=18;" vertex="1" parent="ZAa_9KlzSh3YiVGpdPK9-21">
          <mxGeometry x="340" width="190" height="40" as="geometry" />
        </mxCell>
        <mxCell id="ZAa_9KlzSh3YiVGpdPK9-60" value="Contact Phone" style="shape=partialRectangle;html=1;whiteSpace=wrap;connectable=0;top=0;left=0;bottom=0;right=0;overflow=hidden;align=left;fontColor=#FFFFFF;fillColor=#6C757D;fontSize=18;" vertex="1" parent="ZAa_9KlzSh3YiVGpdPK9-21">
          <mxGeometry x="530" width="320" height="40" as="geometry" />
        </mxCell>
        <mxCell id="ZAa_9KlzSh3YiVGpdPK9-64" value="Contact Email" style="shape=partialRectangle;html=1;whiteSpace=wrap;connectable=0;top=0;left=0;bottom=0;right=0;overflow=hidden;align=left;fontColor=#FFFFFF;fillColor=#6C757D;fontSize=18;" vertex="1" parent="ZAa_9KlzSh3YiVGpdPK9-21">
          <mxGeometry x="850" width="320" height="40" as="geometry" />
        </mxCell>
        <mxCell id="ZAa_9KlzSh3YiVGpdPK9-24" value="DateOfBirth" style="shape=partialRectangle;html=1;whiteSpace=wrap;connectable=0;top=0;left=0;bottom=0;right=0;overflow=hidden;align=left;fontColor=#FFFFFF;fillColor=#6C757D;fontSize=18;" vertex="1" parent="ZAa_9KlzSh3YiVGpdPK9-21">
          <mxGeometry x="1170" width="320" height="40" as="geometry" />
        </mxCell>
        <mxCell id="ZAa_9KlzSh3YiVGpdPK9-45" value="Retires in&amp;nbsp;" style="shape=partialRectangle;html=1;whiteSpace=wrap;connectable=0;top=0;left=0;bottom=0;right=0;overflow=hidden;align=left;fontColor=#FFFFFF;fillColor=#6C757D;fontSize=18;" vertex="1" parent="ZAa_9KlzSh3YiVGpdPK9-21">
          <mxGeometry x="1490" width="320" height="40" as="geometry" />
        </mxCell>
        <mxCell id="ZAa_9KlzSh3YiVGpdPK9-27" style="shape=partialRectangle;html=1;whiteSpace=wrap;collapsible=0;dropTarget=0;pointerEvents=0;fillColor=none;top=0;left=0;bottom=0;right=0;points=[[0,0.5],[1,0.5]];portConstraint=eastwest;" vertex="1" parent="ZAa_9KlzSh3YiVGpdPK9-20">
          <mxGeometry y="40" width="1810" height="40" as="geometry" />
        </mxCell>
        <mxCell id="ZAa_9KlzSh3YiVGpdPK9-28" value="Adam" style="shape=partialRectangle;html=1;whiteSpace=wrap;connectable=0;fillColor=none;top=0;left=0;bottom=0;right=0;overflow=hidden;align=left;fontSize=16;" vertex="1" parent="ZAa_9KlzSh3YiVGpdPK9-27">
          <mxGeometry width="340" height="40" as="geometry" />
        </mxCell>
        <mxCell id="ZAa_9KlzSh3YiVGpdPK9-29" value="Waller" style="shape=partialRectangle;html=1;whiteSpace=wrap;connectable=0;fillColor=none;top=0;left=0;bottom=0;right=0;overflow=hidden;align=left;fontSize=16;" vertex="1" parent="ZAa_9KlzSh3YiVGpdPK9-27">
          <mxGeometry x="340" width="190" height="40" as="geometry" />
        </mxCell>
        <mxCell id="ZAa_9KlzSh3YiVGpdPK9-61" value="(215) 555-1212" style="shape=partialRectangle;html=1;whiteSpace=wrap;connectable=0;fillColor=none;top=0;left=0;bottom=0;right=0;overflow=hidden;align=left;fontSize=16;" vertex="1" parent="ZAa_9KlzSh3YiVGpdPK9-27">
          <mxGeometry x="530" width="320" height="40" as="geometry" />
        </mxCell>
        <mxCell id="ZAa_9KlzSh3YiVGpdPK9-65" value="test@example.com" style="shape=partialRectangle;html=1;whiteSpace=wrap;connectable=0;fillColor=none;top=0;left=0;bottom=0;right=0;overflow=hidden;align=left;fontSize=16;" vertex="1" parent="ZAa_9KlzSh3YiVGpdPK9-27">
          <mxGeometry x="850" width="320" height="40" as="geometry" />
        </mxCell>
        <mxCell id="ZAa_9KlzSh3YiVGpdPK9-30" value="June 1900" style="shape=partialRectangle;html=1;whiteSpace=wrap;connectable=0;fillColor=none;top=0;left=0;bottom=0;right=0;overflow=hidden;align=left;fontSize=16;" vertex="1" parent="ZAa_9KlzSh3YiVGpdPK9-27">
          <mxGeometry x="1170" width="320" height="40" as="geometry" />
        </mxCell>
        <mxCell id="ZAa_9KlzSh3YiVGpdPK9-46" value="X Days" style="shape=partialRectangle;html=1;whiteSpace=wrap;connectable=0;fillColor=none;top=0;left=0;bottom=0;right=0;overflow=hidden;align=left;fontSize=16;" vertex="1" parent="ZAa_9KlzSh3YiVGpdPK9-27">
          <mxGeometry x="1490" width="320" height="40" as="geometry" />
        </mxCell>
        <mxCell id="ZAa_9KlzSh3YiVGpdPK9-33" value="" style="shape=partialRectangle;html=1;whiteSpace=wrap;collapsible=0;dropTarget=0;pointerEvents=0;fillColor=none;top=0;left=0;bottom=0;right=0;points=[[0,0.5],[1,0.5]];portConstraint=eastwest;" vertex="1" parent="ZAa_9KlzSh3YiVGpdPK9-20">
          <mxGeometry y="80" width="1810" height="40" as="geometry" />
        </mxCell>
        <mxCell id="ZAa_9KlzSh3YiVGpdPK9-34" value="Barry" style="shape=partialRectangle;html=1;whiteSpace=wrap;connectable=0;fillColor=none;top=0;left=0;bottom=0;right=0;overflow=hidden;align=left;fontSize=16;" vertex="1" parent="ZAa_9KlzSh3YiVGpdPK9-33">
          <mxGeometry width="340" height="40" as="geometry" />
        </mxCell>
        <mxCell id="ZAa_9KlzSh3YiVGpdPK9-35" value="Tanner" style="shape=partialRectangle;html=1;whiteSpace=wrap;connectable=0;fillColor=none;top=0;left=0;bottom=0;right=0;overflow=hidden;fontSize=16;align=left;" vertex="1" parent="ZAa_9KlzSh3YiVGpdPK9-33">
          <mxGeometry x="340" width="190" height="40" as="geometry" />
        </mxCell>
        <mxCell id="ZAa_9KlzSh3YiVGpdPK9-62" style="shape=partialRectangle;html=1;whiteSpace=wrap;connectable=0;fillColor=none;top=0;left=0;bottom=0;right=0;overflow=hidden;fontSize=16;align=left;" vertex="1" parent="ZAa_9KlzSh3YiVGpdPK9-33">
          <mxGeometry x="530" width="320" height="40" as="geometry" />
        </mxCell>
        <mxCell id="ZAa_9KlzSh3YiVGpdPK9-66" value="test@example.com" style="shape=partialRectangle;html=1;whiteSpace=wrap;connectable=0;fillColor=none;top=0;left=0;bottom=0;right=0;overflow=hidden;fontSize=16;align=left;" vertex="1" parent="ZAa_9KlzSh3YiVGpdPK9-33">
          <mxGeometry x="850" width="320" height="40" as="geometry" />
        </mxCell>
        <mxCell id="ZAa_9KlzSh3YiVGpdPK9-36" value="August 1943" style="shape=partialRectangle;html=1;whiteSpace=wrap;connectable=0;fillColor=none;top=0;left=0;bottom=0;right=0;overflow=hidden;fontSize=16;align=left;" vertex="1" parent="ZAa_9KlzSh3YiVGpdPK9-33">
          <mxGeometry x="1170" width="320" height="40" as="geometry" />
        </mxCell>
        <mxCell id="ZAa_9KlzSh3YiVGpdPK9-47" value="X Days" style="shape=partialRectangle;html=1;whiteSpace=wrap;connectable=0;fillColor=none;top=0;left=0;bottom=0;right=0;overflow=hidden;fontSize=16;align=left;" vertex="1" parent="ZAa_9KlzSh3YiVGpdPK9-33">
          <mxGeometry x="1490" width="320" height="40" as="geometry" />
        </mxCell>
        <mxCell id="ZAa_9KlzSh3YiVGpdPK9-39" value="" style="shape=partialRectangle;html=1;whiteSpace=wrap;collapsible=0;dropTarget=0;pointerEvents=0;fillColor=none;top=0;left=0;bottom=0;right=0;points=[[0,0.5],[1,0.5]];portConstraint=eastwest;" vertex="1" parent="ZAa_9KlzSh3YiVGpdPK9-20">
          <mxGeometry y="120" width="1810" height="40" as="geometry" />
        </mxCell>
        <mxCell id="ZAa_9KlzSh3YiVGpdPK9-40" value="Brucke" style="shape=partialRectangle;html=1;whiteSpace=wrap;connectable=0;fillColor=none;top=0;left=0;bottom=0;right=0;overflow=hidden;fontSize=16;align=left;" vertex="1" parent="ZAa_9KlzSh3YiVGpdPK9-39">
          <mxGeometry width="340" height="40" as="geometry" />
        </mxCell>
        <mxCell id="ZAa_9KlzSh3YiVGpdPK9-41" value="Ritchie" style="shape=partialRectangle;html=1;whiteSpace=wrap;connectable=0;fillColor=none;top=0;left=0;bottom=0;right=0;overflow=hidden;fontSize=16;align=left;" vertex="1" parent="ZAa_9KlzSh3YiVGpdPK9-39">
          <mxGeometry x="340" width="190" height="40" as="geometry" />
        </mxCell>
        <mxCell id="ZAa_9KlzSh3YiVGpdPK9-63" style="shape=partialRectangle;html=1;whiteSpace=wrap;connectable=0;fillColor=none;top=0;left=0;bottom=0;right=0;overflow=hidden;fontSize=16;align=left;" vertex="1" parent="ZAa_9KlzSh3YiVGpdPK9-39">
          <mxGeometry x="530" width="320" height="40" as="geometry" />
        </mxCell>
        <mxCell id="ZAa_9KlzSh3YiVGpdPK9-67" value="test@example.com" style="shape=partialRectangle;html=1;whiteSpace=wrap;connectable=0;fillColor=none;top=0;left=0;bottom=0;right=0;overflow=hidden;fontSize=16;align=left;" vertex="1" parent="ZAa_9KlzSh3YiVGpdPK9-39">
          <mxGeometry x="850" width="320" height="40" as="geometry" />
        </mxCell>
        <mxCell id="ZAa_9KlzSh3YiVGpdPK9-42" value="July 1950" style="shape=partialRectangle;html=1;whiteSpace=wrap;connectable=0;fillColor=none;top=0;left=0;bottom=0;right=0;overflow=hidden;fontSize=16;align=left;" vertex="1" parent="ZAa_9KlzSh3YiVGpdPK9-39">
          <mxGeometry x="1170" width="320" height="40" as="geometry" />
        </mxCell>
        <mxCell id="ZAa_9KlzSh3YiVGpdPK9-48" value="X Days" style="shape=partialRectangle;html=1;whiteSpace=wrap;connectable=0;fillColor=none;top=0;left=0;bottom=0;right=0;overflow=hidden;fontSize=16;align=left;" vertex="1" parent="ZAa_9KlzSh3YiVGpdPK9-39">
          <mxGeometry x="1490" width="320" height="40" as="geometry" />
        </mxCell>
        <mxCell id="ZAa_9KlzSh3YiVGpdPK9-49" value="Next 30 Days" style="html=1;shadow=0;dashed=0;shape=mxgraph.bootstrap.rrect;rSize=5;strokeColor=none;strokeWidth=1;fillColor=#6C767D;fontColor=#ffffff;whiteSpace=wrap;align=left;verticalAlign=middle;fontStyle=0;fontSize=14;spacingLeft=10;" vertex="1" parent="1">
          <mxGeometry x="50" y="107" width="140" height="40" as="geometry" />
        </mxCell>
        <mxCell id="ZAa_9KlzSh3YiVGpdPK9-50" value="" style="shape=triangle;direction=south;fillColor=#ffffff;strokeColor=none;perimeter=none;" vertex="1" parent="ZAa_9KlzSh3YiVGpdPK9-49">
          <mxGeometry x="1" y="0.5" width="10" height="5" relative="1" as="geometry">
            <mxPoint x="-17" y="-2.5" as="offset" />
          </mxGeometry>
        </mxCell>
        <mxCell id="ZAa_9KlzSh3YiVGpdPK9-51" value="" style="html=1;shadow=0;dashed=0;shape=mxgraph.bootstrap.rrect;rSize=5;fillColor=#ffffff;strokeColor=#999999;" vertex="1" parent="1">
          <mxGeometry x="50" y="150" width="170" height="110" as="geometry" />
        </mxCell>
        <mxCell id="ZAa_9KlzSh3YiVGpdPK9-52" value="Next 30 Days" style="fillColor=none;strokeColor=none;align=left;spacing=20;fontSize=14;" vertex="1" parent="ZAa_9KlzSh3YiVGpdPK9-51">
          <mxGeometry width="170" height="30" relative="1" as="geometry">
            <mxPoint y="10" as="offset" />
          </mxGeometry>
        </mxCell>
        <mxCell id="ZAa_9KlzSh3YiVGpdPK9-53" value="Next 60 Days" style="fillColor=none;strokeColor=none;align=left;spacing=20;fontSize=14;" vertex="1" parent="ZAa_9KlzSh3YiVGpdPK9-51">
          <mxGeometry width="170" height="30" relative="1" as="geometry">
            <mxPoint y="40" as="offset" />
          </mxGeometry>
        </mxCell>
        <mxCell id="ZAa_9KlzSh3YiVGpdPK9-54" value="Next 90 Days" style="fillColor=none;strokeColor=none;align=left;spacing=20;fontSize=14;" vertex="1" parent="ZAa_9KlzSh3YiVGpdPK9-51">
          <mxGeometry width="170" height="30" relative="1" as="geometry">
            <mxPoint y="70" as="offset" />
          </mxGeometry>
        </mxCell>
        <mxCell id="ZAa_9KlzSh3YiVGpdPK9-55" value="Null" style="html=1;shadow=0;dashed=0;shape=mxgraph.atlassian.checkbox_2;fillColor=#0057D8;strokeColor=none;align=left;verticalAlign=middle;fontStyle=0;fontSize=12;labelPosition=right;verticalLabelPosition=middle;spacingLeft=10" vertex="1" parent="1">
          <mxGeometry x="240" y="130" width="12" height="12" as="geometry" />
        </mxCell>
        <mxCell id="ZAa_9KlzSh3YiVGpdPK9-58" value="Null" style="html=1;shadow=0;dashed=0;shape=mxgraph.atlassian.checkbox_2;fillColor=#0057D8;strokeColor=none;align=left;verticalAlign=middle;fontStyle=0;fontSize=12;labelPosition=right;verticalLabelPosition=middle;spacingLeft=10" vertex="1" parent="1">
          <mxGeometry x="270" y="60" width="12" height="12" as="geometry" />
        </mxCell>
        <mxCell id="ZAa_9KlzSh3YiVGpdPK9-59" value="Null" style="html=1;shadow=0;dashed=0;shape=mxgraph.atlassian.checkbox_2;fillColor=#0057D8;strokeColor=none;align=left;verticalAlign=middle;fontStyle=0;fontSize=12;labelPosition=right;verticalLabelPosition=middle;spacingLeft=10" vertex="1" parent="1">
          <mxGeometry x="630" y="55" width="12" height="12" as="geometry" />
        </mxCell>
        <mxCell id="ZAa_9KlzSh3YiVGpdPK9-68" value="(215) 555-1212" style="shape=partialRectangle;html=1;whiteSpace=wrap;connectable=0;fillColor=none;top=0;left=0;bottom=0;right=0;overflow=hidden;align=left;fontSize=16;" vertex="1" parent="1">
          <mxGeometry x="550" y="340" width="320" height="40" as="geometry" />
        </mxCell>
        <mxCell id="ZAa_9KlzSh3YiVGpdPK9-69" value="(215) 555-1212" style="shape=partialRectangle;html=1;whiteSpace=wrap;connectable=0;fillColor=none;top=0;left=0;bottom=0;right=0;overflow=hidden;align=left;fontSize=16;" vertex="1" parent="1">
          <mxGeometry x="550" y="380" width="320" height="40" as="geometry" />
        </mxCell>
      </root>
    </mxGraphModel>
  </diagram>
</mxfile>
